<?xml version="1.0" encoding="UTF-8" standalone="no"?>
<!-- Created with Inkscape (http://www.inkscape.org/) -->

<svg
   version="1.1"
   id="svg2708"
   width="882.34595"
   height="1460.8043"
   viewBox="0 0 882.34595 1460.8043"
   sodipodi:docname="22c.svg"
   inkscape:version="1.2.2 (732a01da63, 2022-12-09, custom)"
   xmlns:inkscape="http://www.inkscape.org/namespaces/inkscape"
   xmlns:sodipodi="http://sodipodi.sourceforge.net/DTD/sodipodi-0.dtd"
   xmlns="http://www.w3.org/2000/svg"
   xmlns:svg="http://www.w3.org/2000/svg">
  <defs
     id="defs2712" />
  <sodipodi:namedview
     id="namedview2710"
     pagecolor="#ffffff"
     bordercolor="#000000"
     borderopacity="0.25"
     inkscape:showpageshadow="2"
     inkscape:pageopacity="0.0"
     inkscape:pagecheckerboard="0"
     inkscape:deskcolor="#d1d1d1"
     showgrid="false"
     inkscape:zoom="0.49547396"
     inkscape:cx="437.96449"
     inkscape:cy="678.13856"
     inkscape:window-width="1920"
     inkscape:window-height="1031"
     inkscape:window-x="0"
     inkscape:window-y="25"
     inkscape:window-maximized="1"
     inkscape:current-layer="layer2" />
  <g
     inkscape:groupmode="layer"
     id="layer2"
     inkscape:label="Layer 1">
    <path
       id="path3189"
       style="fill:#000000;stroke-width:1.06667"
       d="M 459.68374 36.812249 C 457.52146 36.704971 454.53084 38.393938 450.94742 41.782952 C 446.65355 45.843848 429.86734 66.865135 429.86734 68.18139 C 429.86734 68.661269 427.94642 71.466525 425.59976 74.413812 C 423.25309 77.361099 421.33413 80.094827 421.33413 80.489984 C 421.33413 80.885139 420.13283 82.78193 418.66617 84.704827 C 417.19951 86.627724 416.00015 88.494694 416.00015 88.853265 C 416.00015 90.794689 405.20572 105.60145 403.79507 105.59545 C 402.28084 105.58861 396.3806 99.941288 389.86734 92.267327 C 374.37454 74.013647 358.40507 61.434676 355.02163 64.818109 C 354.40237 65.43738 353.94712 69.323999 354.00992 73.454827 C 354.20932 86.554505 357.2435 125.18445 358.3771 129.0603 C 358.97652 131.10975 359.46695 134.37099 359.46695 136.30834 C 359.46695 140.40185 363.25256 152.8354 369.11734 167.99975 C 375.24852 183.85296 387.89332 213.01225 389.55484 215.13061 C 392.34377 218.68637 407.46004 251.60628 407.46304 254.13256 C 407.46687 256.81377 407.12315 257.06639 403.46695 257.05639 C 399.76129 257.04619 396.52003 255.66444 387.20913 250.13256 C 381.8928 246.97396 374.17212 239.18683 369.76187 232.53295 C 367.6232 229.30629 365.50871 226.18603 365.06265 225.59936 C 363.69189 223.7965 356.65187 207.98945 352.71109 197.86694 C 350.65554 192.58694 346.33969 181.54706 343.12124 173.33373 C 339.9028 165.1204 336.97983 157.40782 336.62515 156.19506 C 335.61786 152.75078 324.66352 134.64772 321.36538 130.97631 C 310.20039 118.54773 295.57646 105.61962 292.66421 105.60522 C 292.00272 105.60195 290.90214 104.92652 290.2189 104.10326 C 289.53565 103.28001 286.33904 101.31522 283.11538 99.738031 C 274.61398 95.5787 273.72219 96.623531 274.50796 109.82592 C 274.84101 115.4216 275.61524 122.64027 276.22671 125.86694 C 278.07535 135.62212 278.71123 140.80053 278.0607 140.80053 C 277.12715 140.80053 272.92677 136.66599 267.22085 130.13256 C 264.40286 126.90589 259.64524 121.45761 256.64859 118.02319 C 253.65194 114.58877 248.36865 109.06785 244.90835 105.75561 C 241.44805 102.44336 237.12843 98.244123 235.30874 96.423577 C 231.15673 92.269621 210.52806 75.734124 209.4982 75.734124 C 209.07796 75.734124 207.24912 74.605928 205.43374 73.228265 C 201.25537 70.057348 195.03188 67.988084 192.54312 68.943109 C 190.77509 69.621566 190.69269 70.71781 191.48453 83.107171 C 192.52355 99.364167 192.57889 106.44251 191.67398 107.34741 C 190.67687 108.3445 181.88526 106.20241 173.33413 102.87866 C 159.22846 97.395895 140.58242 92.426254 124.38687 89.831781 C 107.84913 87.182489 83.002023 86.843918 75.035306 89.159906 C 71.898768 90.071723 69.334135 90.906464 69.334135 91.015374 C 69.334135 91.124285 69.77969 92.768533 70.324369 94.667718 C 71.200077 97.721133 85.739417 122.36264 87.47476 123.73412 C 89.712441 125.50262 120.53335 176.98358 120.53335 178.95287 C 120.53335 180.38914 117.7155 180.93369 102.40054 182.45483 C 95.653883 183.12494 86.875442 184.61202 82.894681 185.75951 L 75.658353 187.84545 L 76.355619 191.78881 C 77.058031 195.76219 85.118105 210.13256 86.644681 210.13256 C 87.096378 210.13256 87.466947 210.61426 87.466947 211.20092 C 87.466947 211.78759 88.307469 213.15553 89.334135 214.24194 C 92.485847 217.57704 97.456588 223.32277 99.716947 226.24194 C 102.60271 229.9688 110.66869 239.39009 114.88492 243.95873 C 116.76499 245.99596 119.8486 250.07229 121.73843 253.01733 C 125.67281 259.14853 125.93026 258.73965 115.41031 263.07592 C 104.68801 267.4956 90.666166 277.49769 90.666166 280.72631 C 90.666166 281.90461 101.02397 291.41924 104.97085 293.86694 C 106.86284 295.04028 110.29838 297.47961 112.60562 299.28881 C 114.91286 301.098 117.52054 302.88895 118.40054 303.26733 C 119.28054 303.6457 121.91911 305.15768 124.26578 306.6267 C 128.06348 309.00407 160.79311 325.70796 162.13296 325.95287 C 162.77242 326.06975 165.45306 327.14996 171.19937 329.60326 C 173.54604 330.60514 178.34734 332.51842 181.86734 333.85522 C 185.38733 335.19202 189.22721 336.67416 190.40054 337.14819 C 191.57388 337.62223 193.97257 338.2854 195.73257 338.6228 C 209.49764 341.26158 214.9378 341.87229 234.13296 342.9392 C 240.58629 343.2979 246.58695 343.77183 247.46695 343.99194 C 248.34695 344.21206 251.46721 344.67035 254.40054 345.00951 C 263.52172 346.06413 269.61439 347.82165 271.54312 349.95287 C 272.56255 351.07932 273.20258 351.99965 272.96499 351.99975 C 272.72739 351.99986 268.69349 352.75415 264.00015 353.67553 C 255.836 355.27831 231.73668 355.98548 224.53335 354.83373 C 222.77336 354.55231 218.45374 354.00252 214.93374 353.61108 C 211.41375 353.21963 204.45361 352.00432 199.46695 350.90991 C 194.48028 349.81549 188.71949 348.62764 186.66617 348.27123 C 184.61284 347.91483 179.81349 346.94577 176.00015 346.11889 C 164.92893 343.7182 162.30473 343.38613 149.29117 342.73803 C 138.21422 342.18637 135.81089 342.41906 125.29117 345.05053 C 112.47215 348.25715 106.90877 350.52816 105.22867 353.23998 C 103.69406 355.71696 107.45015 360.8841 115.18374 366.93334 C 122.9543 373.01149 126.3824 377.56443 124.52359 379.33959 C 123.79553 380.03488 117.44053 382.58862 110.40054 385.01342 C 84.298176 394.0039 66.742355 401.92752 60.18765 407.67553 C 55.278441 411.98056 37.692572 433.71315 37.011869 436.31616 C 36.449771 438.46562 39.488353 440.18084 55.466947 446.73412 C 72.738388 453.81765 85.166624 459.74034 111.24038 473.3142 C 115.67437 475.62252 117.69834 479.31616 116.89078 483.62084 C 116.16479 487.49072 116.02791 487.81342 108.29312 503.63061 C 104.98543 510.39463 103.48876 514.65466 103.93179 516.05053 C 105.13573 519.84383 114.98588 520.38607 135.46695 517.78491 C 163.14864 514.26925 176.80943 508.66993 200.96109 490.94311 C 211.02574 483.55586 212.65581 482.13222 228.94937 466.49584 C 242.46566 453.52472 253.29966 447.83604 261.1857 449.56811 C 268.43841 451.16107 267.63062 462.06625 259.74234 469.04272 C 251.44598 476.38009 249.17363 478.10466 237.87515 485.656 C 231.71077 489.77598 226.42629 493.44885 226.13296 493.81616 C 225.83962 494.18347 221.60496 497.2615 216.72085 500.656 C 211.83674 504.05049 206.98495 507.63048 205.9396 508.61303 C 204.89425 509.59559 201.76092 512.3191 198.97671 514.66576 C 192.53535 520.09485 179.50019 536.29044 175.15054 544.26733 C 173.31111 547.64065 172.08839 550.40014 172.43374 550.40014 C 172.77907 550.40014 172.59149 551.00078 172.01773 551.73412 C 170.20513 554.0508 169.77984 557.70278 171.10953 559.52123 C 172.57242 561.52186 177.62901 560.9351 194.13296 556.84741 C 209.56841 553.02436 222.99672 551.07321 226.51187 552.14428 C 228.11103 552.63155 228.35336 553.39198 227.77554 556.10717 C 226.60181 561.62259 226.3911 562.33444 223.48453 570.66576 C 218.78196 584.14501 217.43717 591.74888 217.41617 604.96264 C 217.40265 613.47858 217.95795 619.35276 219.17203 623.52905 L 220.94742 629.63842 L 230.74038 629.03881 C 236.12631 628.70919 249.80634 627.34436 261.13882 626.00561 C 279.00442 623.89508 281.87238 623.77687 282.71695 625.11889 C 283.73258 626.73275 288.2636 638.34913 294.9689 656.53295 C 299.61444 669.13096 303.13904 676.35879 305.66226 678.45287 C 307.30406 679.81544 307.97567 679.42596 312.22085 674.65209 C 314.82199 671.72704 317.70749 667.90025 318.63296 666.14819 C 319.55842 664.39611 322.81983 659.83663 325.88101 656.01537 C 328.94217 652.19413 332.00271 647.99822 332.68179 646.69116 C 335.01372 642.20272 351.24787 622.39506 358.32437 615.40405 C 362.21906 611.55641 368.26932 606.31051 371.76968 603.74584 C 375.27006 601.18117 378.37284 598.80619 378.66617 598.4685 C 378.95951 598.13082 382.07976 595.7127 385.59976 593.09545 C 393.65953 587.10272 402.4442 578.1594 404.98257 573.36303 C 419.45256 546.02125 423.728 533.86617 423.7482 519.99975 C 423.76875 505.89651 421.02169 493.02837 412.18179 465.82201 C 407.219 450.54819 404.24077 434.77607 404.83413 426.90014 C 405.71599 415.19512 407.64583 413.2197 413.74038 417.78295 C 417.47234 420.57723 439.78162 442.64362 446.48843 450.17358 C 452.37789 456.78585 460.26814 468.65443 463.26968 475.41576 C 466.98434 483.78345 472.50563 501.99057 472.52163 505.92748 C 472.52832 507.57436 473.00591 510.93449 473.58413 513.39428 C 474.16236 515.85406 476.08637 531.06761 477.85953 547.20092 C 480.97077 575.50883 482.43904 586.35991 486.08218 607.99975 C 489.44021 627.94596 490.53071 633.39882 494.94156 652.26733 C 498.61373 667.97605 499.12348 672.0965 497.46695 672.73217 C 495.9322 673.32111 489.04939 672.77682 475.27554 670.97631 C 470.62396 670.36825 464.14356 669.62278 460.87515 669.32006 C 457.60675 669.01734 450.37426 668.34145 444.80093 667.81811 C 414.28826 664.95293 376.76933 669.00566 355.19937 677.4978 C 350.47953 679.35601 346.40254 681.73365 345.25406 683.29662 C 342.42943 687.14071 341.92136 694.53946 344.04312 700.92748 L 345.83218 706.31811 L 351.31656 705.83178 C 354.3326 705.56427 364.00094 703.11566 372.80093 700.39037 C 399.72745 692.05145 414.262 688.95248 425.06656 689.2517 C 430.28501 689.39621 449.80858 692.79694 457.86734 694.96459 C 458.89401 695.24075 460.81296 695.69967 462.13296 695.98412 C 465.41787 696.69199 477.65334 700.78735 481.76187 702.55444 C 483.61053 703.34957 485.52948 704.00733 486.02749 704.01733 C 486.5255 704.02716 490.77361 705.94031 495.46695 708.26733 C 503.52285 712.26155 503.78521 712.49857 500.17007 712.51537 C 494.56661 712.54152 481.06407 716.22944 474.5021 719.52514 C 465.80832 723.89151 456.19367 731.09198 450.75406 737.3103 C 447.10944 741.47664 445.48984 742.64278 444.4396 741.85717 C 425.32647 727.55983 404.90757 721.4703 384.67398 724.03491 C 362.29158 726.87187 343.98372 736.8914 330.83804 753.49975 C 327.51667 757.69601 323.85662 762.90561 322.70328 765.07592 L 320.60562 769.02123 L 316.42788 760.28295 C 310.75479 748.41773 297.57893 735.0748 285.86734 729.33764 C 273.5937 723.32513 265.95728 721.62511 251.73257 721.73217 C 241.54703 721.80883 238.01934 722.29877 230.93374 724.61889 C 189.5025 738.18518 170.56786 781.97984 189.99234 819.31616 C 194.41737 827.82162 204.78938 839.58332 211.21109 843.3767 C 215.37598 845.83697 215.23437 846.54434 210.40054 847.41772 C 203.92638 848.58752 189.39631 856.13062 182.40249 861.95092 C 170.49912 871.85701 161.54094 885.55695 156.65054 901.33373 C 153.40879 911.79183 153.13209 933.21636 156.09976 943.99975 C 160.69783 960.70742 171.12238 976.64902 183.67007 986.15795 C 191.44399 992.0492 204.8625 998.59053 213.33413 1000.6208 C 219.65375 1002.1354 237.60135 1002.531 242.41617 1001.2615 L 245.36734 1000.4841 L 244.55093 1005.0427 C 243.19608 1012.6054 243.82647 1029.3913 245.74429 1036.8005 C 251.90565 1060.6042 269.46885 1079.8561 291.42398 1086.8728 L 295.37906 1088.1365 L 290.60367 1093.9997 C 284.43162 1101.5773 278.81476 1112.8057 276.06851 1123.0544 C 273.04596 1134.3336 273.04688 1152.6024 276.07046 1163.8865 C 280.89644 1181.8972 292.5332 1198.8088 306.90249 1208.6951 C 317.61817 1216.0677 335.97866 1222.4001 346.64078 1222.4001 C 349.85105 1222.4001 349.76801 1222.5376 341.61929 1230.6833 C 324.58309 1247.7135 317.17005 1266.9923 318.14273 1291.7341 C 318.98373 1313.1261 325.62467 1328.1176 341.33413 1344.0896 C 348.96964 1351.8527 351.99956 1354.0906 360.53335 1358.2771 C 373.64786 1364.7106 383.36317 1366.7733 397.33413 1366.0876 C 410.44674 1365.444 422.65907 1361.667 432.86343 1355.1013 L 439.94156 1350.5486 L 443.25406 1356.7478 C 447.96702 1365.5688 453.74058 1373.1252 459.85757 1378.4763 L 465.14859 1383.1033 L 461.67593 1393.1521 C 458.39017 1402.6622 458.20172 1404.0278 458.16812 1418.6658 C 458.1376 1431.9768 458.48115 1435.2428 460.63296 1442.0955 C 468.99835 1468.7358 487.55238 1487.4911 513.06656 1495.0994 C 522.98252 1498.0563 541.19709 1498.4762 550.97671 1495.9724 C 578.12093 1489.0232 599.8948 1466.9847 606.97671 1439.2947 C 609.22754 1430.494 609.76599 1412.6287 608.04703 1403.7341 C 607.53683 1401.0941 607.24354 1398.8072 607.39663 1398.6521 C 607.54972 1398.497 610.34718 1399.5923 613.61343 1401.0876 C 631.76781 1409.399 655.23245 1408.7682 674.66617 1399.447 C 698.20003 1388.1592 714.16232 1365.6633 717.89078 1338.5251 C 719.68349 1325.4766 717.59847 1309.4116 712.59781 1297.7478 C 710.56993 1293.0178 710.53946 1292.6295 712.25406 1293.3357 C 724.87003 1298.5316 746.30589 1299.0963 760.00015 1294.5935 C 780.8453 1287.7396 798.69028 1271.6042 807.40054 1251.7341 C 815.8812 1232.3876 815.87495 1205.8813 807.38296 1186.6658 C 801.84963 1174.145 791.8723 1161.878 781.30679 1154.6013 L 775.59781 1150.6697 L 783.26578 1145.654 C 787.48304 1142.8959 794.33476 1136.9905 798.49234 1132.531 C 824.32078 1104.8272 826.42395 1061.5328 803.41421 1031.2009 C 800.41017 1027.2409 798.29266 1024.0178 798.70913 1024.0388 C 799.12562 1024.0597 802.34734 1024.7708 805.86734 1025.6208 C 809.38733 1026.4707 816.87009 1027.1733 822.49624 1027.1833 C 858.20382 1027.2414 889.08238 1003.0159 899.37124 966.8728 C 902.46784 955.99493 902.82725 934.24685 900.07437 924.26733 C 897.11105 913.52494 893.99736 906.13391 889.51382 899.19701 C 887.15854 895.55293 885.37441 892.19491 885.54898 891.73608 C 885.72356 891.27724 888.57346 888.7067 891.88101 886.02319 C 907.89229 873.03273 918.02222 852.16808 919.17007 829.81811 C 920.45725 804.75535 911.78606 783.21068 893.65445 766.42358 C 871.52889 745.93872 839.86426 741.06186 811.53531 753.77514 L 805.10562 756.65991 L 801.38492 752.18139 C 793.34758 742.5055 777.33113 732.64272 763.73257 728.99584 C 754.43852 726.50336 736.72389 726.43931 727.46695 728.86303 C 716.89283 731.63163 704.27746 738.30818 696.75406 745.11889 C 693.06191 748.46129 689.91188 751.01753 689.75406 750.79858 C 689.59624 750.57962 687.22595 747.20614 684.48648 743.30248 C 663.79896 713.82332 624.56163 703.21598 592.53335 718.44311 C 588.4267 720.39554 583.76555 722.84426 582.17593 723.88451 C 580.58632 724.92477 579.03068 725.52051 578.7189 725.20873 C 577.09276 723.5826 559.85454 691.61428 552.46695 676.52514 C 541.91905 654.9811 536.35014 641.09299 532.11148 625.76147 C 520.13899 582.45613 517.34708 559.67313 519.96304 526.64233 C 520.32418 522.08242 520.81066 517.76281 521.04507 517.04272 C 521.27949 516.32264 521.73961 513.60359 522.06656 510.99975 C 522.39353 508.3959 523.9101 502.16793 525.43765 497.15991 C 526.96519 492.15188 528.37534 487.32229 528.57242 486.42748 C 530.61958 477.13324 544.08273 443.93499 552.99429 426.20483 L 557.78335 416.67748 L 568.75796 412.76147 C 574.79434 410.60818 582.35375 407.51746 585.55679 405.89233 C 593.20353 402.01257 608.89107 392.27855 612.26578 389.32006 C 613.73243 388.03429 616.8527 385.5704 619.19937 383.8435 C 621.54604 382.11659 628.98592 374.95313 635.73257 367.92553 C 662.55725 339.98383 677.17642 325.46368 685.07046 318.91772 C 692.97354 312.36426 695.23601 309.4151 693.95328 307.33959 C 692.80961 305.48908 686.22006 303.06423 673.06656 299.65209 C 655.36434 295.05999 654.57076 294.50887 655.2521 287.32787 C 655.99751 279.47184 667.93441 245.01955 674.81656 230.86108 C 680.73601 218.68308 684.31139 214.58741 697.02359 205.42944 C 699.39347 203.72216 701.58563 201.94625 701.89468 201.48412 C 702.56363 200.48382 714.69889 191.45718 727.87906 182.156 C 736.0034 176.42267 738.36372 174.81874 741.25601 173.05639 C 741.68413 172.79552 730.99926 156.88229 729.62515 155.73412 C 729.2741 155.44078 726.39169 151.60092 723.22085 147.20092 C 720.05003 142.80093 716.41398 138.07475 715.13882 136.69897 C 712.86378 134.24444 712.75129 134.23204 709.20913 136.04076 C 699.18912 141.1573 661.07451 166.26681 657.59976 170.04076 C 657.01309 170.67794 653.89282 173.17072 650.66617 175.57983 C 641.29379 182.57747 636.67561 186.63776 622.37515 200.44701 C 614.73245 207.82721 613.01941 208.9471 606.37515 210.906 C 602.28264 212.11258 596.16963 213.39632 592.79117 213.75951 C 586.73015 214.41112 586.62041 214.37397 584.50796 210.94311 C 583.33046 209.0307 581.7024 205.26239 580.89078 202.56811 C 579.14022 196.75702 575.42635 189.23052 573.82046 188.23803 C 571.3163 186.69036 567.36888 189.14747 559.66031 197.05248 C 550.9278 206.00753 545.49947 212.23239 529.17984 231.99975 C 513.93766 250.46205 505.27231 259.20578 502.24234 259.17748 C 497.62289 259.13435 491.26809 255.38245 488.12124 250.84155 C 483.94108 244.80957 484.65463 239.38399 490.95913 229.2478 C 492.26519 227.14794 494.29361 223.85053 495.46695 221.91967 C 496.64028 219.9888 499.63964 215.86027 502.13296 212.74389 C 504.6263 209.62753 506.66617 206.76428 506.66617 206.38061 C 506.66617 205.99695 508.19041 203.44268 510.05288 200.70678 C 515.45583 192.77011 516.66704 190.78 520.21499 183.99975 C 524.16528 176.45063 527.73878 167.60528 528.47085 163.56811 C 528.75824 161.98328 529.48607 158.25262 530.08609 155.27709 C 531.79814 146.787 532.2458 142.32137 532.87515 127.46655 C 533.65158 109.14038 533.2737 108.38238 523.17203 107.94116 C 515.25928 107.59555 499.50554 110.2071 494.7189 112.65795 C 493.13469 113.46909 490.85495 114.13256 489.65249 114.13256 C 487.76104 114.13256 487.46083 113.44952 487.42593 109.06616 C 487.34455 98.831371 484.07883 85.046577 478.30679 70.581781 C 474.28751 60.509447 463.4281 39.072992 461.5607 37.523187 C 461.03268 37.084967 460.40451 36.848009 459.68374 36.812249 z M 432.58218 394.01928 C 434.12321 394.03624 436.54903 394.39724 439.64663 395.08569 C 443.94777 396.04162 448.42804 397.00868 449.60367 397.23412 C 450.77927 397.45956 453.89954 398.229 456.53726 398.94506 C 459.17497 399.66113 461.81387 400.35903 462.40054 400.49584 C 462.9872 400.63266 464.18656 401.0188 465.06656 401.35522 C 465.94656 401.69163 469.30669 402.80221 472.53335 403.82201 C 481.14043 406.54233 493.86734 414.08276 493.86734 416.46264 C 493.86734 417.14814 492.67716 421.76588 491.22281 426.72241 C 489.76845 431.67893 488.56714 436.36523 488.55484 437.13647 C 488.54253 437.90772 487.51331 440.90707 486.26773 443.80248 C 485.02215 446.6979 483.37413 449.06616 482.60367 449.06616 C 480.85747 449.06616 471.77047 440.80903 449.14663 418.66576 C 437.53434 407.30012 429.07774 396.09404 430.80874 394.36303 C 431.05032 394.12145 431.65756 394.00911 432.58218 394.01928 z "
       transform="translate(-36.949369,-36.808343)" />
    <path
       style="fill:#ffcc00;stroke-width:1.06667"
       d="m 318.52587,636.0685 c 3.72078,-7.49721 6.77633,-11.89354 11.62086,-16.72011 7.922,-7.89262 13.20256,-12.41504 14.49629,-12.41504 0.52634,0 0.95699,-0.39864 0.95699,-0.88585 0,-0.48721 2.28,-2.51188 5.06666,-4.49925 4.94606,-3.52739 14.30085,-10.77033 19.29062,-14.93576 1.36983,-1.14353 2.6488,-2.07914 2.84214,-2.07914 2.24331,0 26.13391,-27.04762 26.13391,-29.58735 0,-0.59663 0.70465,-1.66958 1.5659,-2.38436 0.86125,-0.71476 1.50268,-1.61353 1.42541,-1.99727 -0.0772,-0.38373 1.37959,-3.98581 3.23747,-8.00461 4.94262,-10.69154 6.5354,-18.72455 6.05935,-30.55975 -0.4238,-10.53567 -1.89247,-16.766 -10.68639,-45.33333 -6.0713,-19.72278 -8.66576,-29.23331 -10.64608,-39.02543 -2.02964,-10.03595 -2.31915,-24.98303 -0.52575,-27.14395 0.71389,-0.86018 0.94043,-1.56396 0.50342,-1.56396 -0.437,0 -0.29659,-0.6 0.31202,-1.33333 0.60861,-0.73333 1.22174,-1.81333 1.3625,-2.4 0.65677,-2.73731 4.89602,-6.9735 9.38476,-9.37796 10.34992,-5.54411 28.74905,-7.70861 41.77678,-4.91466 3.01091,0.64573 6.27454,1.329 7.2525,1.51839 0.97796,0.18939 1.89811,0.44107 2.04478,0.55928 0.14666,0.11822 0.62666,0.31517 1.06666,0.43766 0.44,0.12249 2.15125,0.78249 3.80278,1.46666 1.65152,0.68419 3.24228,1.24396 3.53502,1.24396 0.29272,0 3.15571,1.2 6.36216,2.66667 3.20647,1.46667 6.02446,2.66667 6.26222,2.66667 0.23775,0 1.78353,0.55376 3.43505,1.23057 1.65153,0.67681 3.48277,1.34061 4.06944,1.47512 0.58667,0.1345 5.14667,1.4886 10.13334,3.0091 4.98666,1.5205 10.98666,3.03071 13.33333,3.35602 2.34667,0.32532 5.22667,0.79362 6.4,1.04068 6.79312,1.43037 17.84029,2.13885 31.46667,2.01805 13.66101,-0.12111 16.43869,-0.46456 23.79276,-2.94197 13.49655,-4.54666 22.48492,-9.75941 30.68115,-17.79336 2.35341,-2.30681 4.48541,-4.19422 4.73778,-4.19422 0.25235,0 4.43296,-4.13607 9.29024,-9.19126 4.85727,-5.0552 12.1914,-12.67743 16.29807,-16.93829 4.10666,-4.26086 10.40541,-10.80479 13.99719,-14.54206 3.59179,-3.73728 9.11179,-9.1352 12.26667,-11.99538 7.25366,-6.57612 12.66947,-13.23649 12.66947,-15.58094 0,-2.28695 -5.43784,-3.97265 -15.46667,-4.79459 -21.87237,-1.79261 -23.40538,-2.91043 -17.50729,-12.76558 3.67989,-6.14876 10.26226,-20.32821 12.15877,-26.1919 1.04361,-3.22666 2.37273,-6.46666 2.9536,-7.2 0.58088,-0.73333 0.69859,-1.33333 0.26159,-1.33333 -0.437,0 -0.197,-0.72 0.53333,-1.6 0.73034,-0.88 1.0536,-1.6 0.71837,-1.6 -0.33523,0 0.0925,-1.68 0.95038,-3.73333 0.85793,-2.05334 1.25467,-3.73334 0.88163,-3.73334 -0.37304,0 -0.17307,-0.6087 0.44437,-1.35267 1.55164,-1.86962 3.85153,-19.12404 3.00085,-22.51338 -0.93398,-3.72129 -4.08568,-4.34707 -14.79161,-2.93691 -18.66335,2.45829 -28.31604,5.08108 -49.32998,13.40374 -11.79219,4.67035 -15.69978,4.89323 -17.47515,0.99672 -0.7023,-1.54138 -1.54547,-5.02138 -1.87373,-7.73334 -0.76785,-6.34395 -3.54165,-13.99901 -5.07004,-13.99219 -0.65364,0.003 -2.48949,1.08291 -4.07967,2.4 -3.25116,2.69279 -17.83164,20.72576 -18.75398,23.1947 -0.32874,0.88 -1.71305,3.08531 -3.07624,4.90068 -1.36319,1.81538 -2.49804,3.73538 -2.52188,4.26667 -0.0239,0.53129 -1.46384,2.62785 -3.2,4.65903 -1.73616,2.03117 -3.15665,4.28745 -3.15665,5.01397 0,1.87078 -12.15949,13.84031 -16.16325,15.91073 -6.98489,3.61203 -25.71534,1.56486 -33.97009,-3.71281 -8.10066,-5.17916 -15.17882,-15.85216 -15.55485,-23.45477 -0.27236,-5.50666 4.86311,-17.79035 10.36972,-24.80366 1.67849,-2.13776 3.0518,-4.22371 3.0518,-4.63545 0,-0.41173 5.28,-7.41931 11.73334,-15.5724 6.45333,-8.15309 11.73333,-15.11305 11.73333,-15.46656 0,-0.35353 1.07813,-2.15688 2.39585,-4.00744 1.31772,-1.85056 2.22114,-3.36466 2.00759,-3.36466 -0.21353,0 0.43479,-1.92 1.44072,-4.26667 7.31462,-17.06377 11.42745,-32.68281 11.31785,-42.98114 -0.0795,-7.46259 -1.19801,-10.41464 -4.32199,-11.40615 -2.42034,-0.76818 -14.31552,2.0121 -20.72499,4.8441 -2.40993,1.06482 -6.85503,2.2633 -9.87799,2.66328 -5.00879,0.66273 -5.61192,0.51118 -6.8,-1.70877 -0.71704,-1.33981 -1.51071,-5.83546 -1.7637,-9.99033 -1.23702,-20.315466 -2.234,-24.712606 -8.4119,-37.100238 -6.786,-13.606972 -10.28078,-18.98326 -12.34129,-18.98551 -1.60632,-0.0018 -12.39725,12.299669 -14.03369,15.998093 -0.38937,0.88 -1.89677,3.52 -3.34976,5.866667 -3.0131,4.866336 -10.20337,19.498968 -10.20337,20.764468 0,0.46254 -0.73159,1.44816 -1.62578,2.19026 -0.89418,0.7421 -1.3863,1.58875 -1.09361,1.88143 0.55759,0.55759 -7.15938,10.45469 -9.95994,12.77373 -0.89217,0.73877 -3.27828,1.80051 -5.30247,2.35941 -3.28499,0.90703 -4.14969,0.65721 -8.04928,-2.32557 -5.56229,-4.25458 -11.88008,-10.7061 -16.60725,-16.95875 -6.46528,-8.551667 -13.27779,-12.502417 -16.39581,-9.508351 -3.1091,2.985494 1.85162,48.957951 6.67833,61.890041 9.79497,26.24341 20.44515,49.48875 31.47678,68.70188 8.67317,15.10556 11.18111,20.82559 12.41321,28.31168 1.29446,7.86498 -0.4088,13.47851 -4.79093,15.7897 -4.07627,2.14988 -17.89551,2.31651 -22.47658,0.271 -1.76,-0.78585 -3.50866,-1.46905 -3.88592,-1.51821 -1.93775,-0.25251 -29.01693,-22.83867 -30.7318,-25.63274 -6.12156,-9.97398 -10.14168,-19.46635 -17.64204,-41.65664 -1.98294,-5.86667 -4.80917,-13.78667 -6.2805,-17.6 -1.47132,-3.81334 -3.92606,-10.26234 -5.45496,-14.33113 -6.03715,-16.06636 -17.18062,-31.67265 -30.01948,-42.04188 -10.28855,-8.30948 -11.58067,-5.33735 -6.19065,14.23967 8.05205,29.2458 8.92474,36.01439 4.78302,37.09748 -5.11467,1.33751 -10.65442,-3.43297 -28.84434,-24.83893 -2.64,-3.10676 -5.64,-6.53588 -6.66667,-7.62026 -1.02667,-1.0844 -1.86667,-2.21162 -1.86667,-2.50495 0,-0.29334 -0.84,-1.42239 -1.86666,-2.50902 -1.02667,-1.08662 -5.94667,-6.44409 -10.93334,-11.90549 -4.98666,-5.46139 -10.436,-11.17233 -12.10963,-12.69098 -1.67362,-1.51865 -5.86062,-5.43903 -9.30441,-8.71195 -7.34883,-6.984166 -14.36623,-10.897885 -18.65116,-10.402048 -2.97953,0.344779 -3.04189,0.484052 -2.73759,6.113858 0.17126,3.16857 0.75196,6.91982 1.29042,8.33611 1.22491,3.22175 1.25549,15.28187 0.0436,17.19373 -0.68381,1.07876 -1.77943,1.17584 -4.517,0.40023 -4.21981,-1.19556 -21.07525,-8.12603 -26.68485,-10.97205 -2.12884,-1.08006 -5.00884,-2.18495 -6.4,-2.4553 -1.39115,-0.27034 -6.64413,-1.46608 -11.67328,-2.65718 -25.63009,-6.07023 -54.09731,-8.75878 -58.045542,-5.48203 -2.316672,1.92266 -1.979659,8.45358 0.660968,12.80878 1.244968,2.05334 2.577914,3.97334 2.962104,4.26667 0.38419,0.29333 4.51363,6.41333 9.17654,13.6 4.6629,7.18667 8.84816,13.06667 9.30058,13.06667 0.4524,0 0.82256,0.68 0.82256,1.51111 0,0.83111 0.39873,1.67111 0.88606,1.86667 0.48734,0.19555 3.93347,4.91555 7.65804,10.48888 3.72458,5.57334 7.33687,10.61334 8.0273,11.2 3.03267,2.57687 11.29137,15.60677 10.96527,17.3001 -0.4668,2.42389 -6.79865,3.51719 -15.27001,2.63662 -10.36511,-1.07742 -25.39305,-0.69625 -28,0.71021 -1.43238,0.77276 -2.4,2.29745 -2.4,3.78169 0,3.08771 4.21741,13.43805 5.47555,13.43805 0.50845,0 0.92445,0.68 0.92445,1.51112 0,0.8311 0.36899,1.6711 0.81998,1.86666 0.45099,0.19555 3.19967,3.71555 6.10819,7.82222 5.76921,8.1458 8.3696,11.10883 21.65434,24.67411 9.93358,10.14335 13.00768,14.55674 13.0135,18.68307 0.004,2.64932 -0.43682,2.90059 -7.12921,4.06602 -3.92327,0.6832 -11.24327,1.48283 -16.26667,1.77694 -13.40219,0.78467 -14.06229,0.98879 -12.91935,3.99497 1.53974,4.04983 17.16497,18.79423 19.93392,18.81019 0.50525,0.003 2.35864,1.20934 4.11864,2.68093 1.76,1.4716 4.64,3.38822 6.4,4.25914 1.76,0.87093 4.64,2.52184 6.4,3.66868 2.84589,1.85443 12.01442,6.45262 12.86615,6.45262 0.18057,0 1.67955,0.55978 3.33107,1.24396 3.43778,1.42416 5.06454,1.94101 6.19786,1.96917 0.29063,0.007 3.05063,0.92864 6.13333,2.04758 5.32506,1.93288 7.84839,2.57885 15.20492,3.89246 1.76,0.31428 5.12,0.99118 7.46667,1.50424 5.2144,1.14003 20.19951,3.2152 34.66666,4.8007 8.4987,0.93142 27.82027,3.56961 30.93334,4.22369 3.65363,0.76767 15.80639,6.78956 19.83401,9.8281 1.81539,1.36956 3.77171,2.4901 4.34741,2.4901 3.59651,0 7.43234,9.1102 5.29317,12.57145 -2.0767,3.36018 -16.41235,7.30803 -29.94692,8.24698 -9.04864,0.62776 -33.44526,0.6134 -37.92767,-0.0223 -2.05334,-0.29121 -6.37334,-0.7819 -9.6,-1.09042 -5.09992,-0.48764 -9.71229,-1.21033 -21.33334,-3.3426 -1.46666,-0.26911 -6.74666,-1.39409 -11.73333,-2.49997 C 181.68,357.29062 176.16,356.12916 174.4,355.81547 c -1.76,-0.31369 -7.52,-1.47737 -12.8,-2.58595 -5.91418,-1.24174 -12.39847,-1.86878 -16.88884,-1.63316 C 136.85522,352.00855 128,355.20089 128,357.62079 c 0,2.89771 5.21059,6.62951 19.73334,14.13289 12.02635,6.21359 13.86666,7.49647 13.86666,9.66648 0,2.81208 -6.9685,5.97583 -21.9618,9.97081 -22.29366,5.94017 -30.23819,8.25838 -38.30486,11.17736 -15.425232,5.58169 -38.421545,20.63943 -38.387768,25.13589 0.0067,0.89603 1.806731,2.45211 4,3.45797 11.328157,5.19518 22.586805,10.81271 26.387763,13.1662 2.346667,1.45303 5.226667,3.11242 6.4,3.68754 1.173335,0.57512 2.853335,1.51045 3.733335,2.07851 2.39392,1.54532 10.44892,4.85523 17.03362,6.99935 16.02472,5.21797 18.58533,7.62061 17.02321,15.97291 -0.54862,2.93333 -1.31439,6.05333 -1.70171,6.93333 -0.38731,0.88 -0.78712,1.84 -0.88845,2.13333 -0.43107,1.24777 -2.04879,5.10436 -3.89053,9.27482 -2.33103,5.27842 -2.5217,8.42093 -0.55669,9.17498 2.06397,0.79201 8.71369,0.13603 17.24722,-1.70142 6.68279,-1.43895 9.97611,-2.49593 24.13232,-7.74521 8.68592,-3.22084 18.2375,-9.94788 25.46351,-17.93361 11.19775,-12.37504 28.02592,-28.50668 31.6847,-30.37325 9.25546,-4.72178 16.81579,-6.75582 26.64536,-7.1687 9.94423,-0.4177 11.24329,-0.10603 17.74027,4.25688 4.57629,3.07309 8.45501,11.50582 7.53992,16.39258 -1.70899,9.12633 -5.54235,14.95467 -14.08912,21.42143 -2.74099,2.07393 -5.14363,4.15269 -5.33918,4.61948 -0.19556,0.46678 -1.03556,0.84869 -1.86667,0.84869 -0.83111,0 -1.51111,0.40022 -1.51111,0.88937 0,0.48915 -2.7317,2.76915 -6.07043,5.06666 -3.33875,2.29752 -6.81875,4.92614 -7.73334,5.84138 -0.9146,0.91524 -4.3029,3.54446 -7.52957,5.8427 -3.22666,2.29824 -6.34666,4.6968 -6.93333,5.33012 -0.58667,0.63333 -2.98667,2.53055 -5.33333,4.21604 -3.92225,2.81716 -7.21639,5.63239 -14.05742,12.01373 -1.41508,1.32 -2.74306,2.4 -2.95106,2.4 -0.208,0 -2.14814,1.76995 -4.31141,3.93322 -4.07466,4.07467 -5.75558,9.73945 -2.68011,9.03214 12.9765,-2.98446 17.41846,-3.49068 25.91124,-2.9529 11.39324,0.72143 18.80409,3.54539 19.05465,7.2609 0.26893,3.9879 -0.18784,7.19651 -1.46003,10.25584 -0.65657,1.57894 -1.29399,3.2308 -1.41649,3.6708 -0.12248,0.44 -0.34271,1.04 -0.48937,1.33334 -0.14667,0.29333 -0.36812,0.89333 -0.49213,1.33333 -0.124,0.44 -0.53003,1.52 -0.90227,2.4 -1.46207,3.45632 -6.24151,17.30939 -6.58214,19.07817 -0.19844,1.03041 -1.06339,4.23935 -1.92211,7.13098 -0.85873,2.89163 -1.57176,5.49752 -1.58454,5.79085 -0.0128,0.29333 -0.36426,3.7178 -0.78107,7.60993 -1.16003,10.83224 -0.62596,11.67708 7.27897,11.51453 11.98174,-0.24638 43.04968,-5.46736 50.95463,-8.56294 3.98402,-1.56015 8.05207,-0.20236 9.38157,3.13128 0.62307,1.56229 1.63816,6.11143 2.25573,10.10919 2.99354,19.37762 8.73392,33.52441 12.3766,30.50127 0.74865,-0.62134 3.63284,-5.70698 6.40929,-11.30143 z"
       id="path3284"
       transform="translate(-36.949369,-36.808343)" />
    <path
       id="path3282"
       style="fill:#0066ff;stroke-width:1.06667"
       d="M 623.46695 718.51342 C 610.87961 718.52462 608.86168 718.80271 601.59976 721.531 C 591.23335 725.42563 581.15291 732.02844 574.10171 739.54076 L 568.4689 745.54076 L 571.09976 749.70873 C 584.88726 771.54953 585.97566 803.09747 573.77749 827.37866 C 569.19808 836.49425 569.21955 836.66071 575.91617 843.15014 L 580.26968 847.36889 L 593.33413 847.09936 C 609.32036 846.77026 619.07071 848.97347 631.8732 855.80639 L 640.53335 860.42748 L 646.7814 858.3435 C 650.2181 857.19718 656.55617 853.90146 660.86538 851.01928 C 689.27653 832.01676 700.58208 795.52626 688.09195 763.14037 C 680.56087 743.61294 664.25293 727.90347 644.26578 720.92162 C 638.42004 718.87962 635.15841 718.50306 623.46695 718.51342 z M 504.92203 719.08178 C 499.89941 719.12119 494.99623 719.56602 491.19937 720.46069 C 478.34027 723.49069 468.88359 728.91254 458.58218 739.16186 C 443.79698 753.87231 437.02359 770.13787 437.02359 790.93334 C 437.02359 811.25977 444.35508 829.25312 458.33023 843.22826 C 466.57513 851.47316 473.08043 855.14315 481.75601 856.44311 C 485.94836 857.0713 492.42875 858.7608 496.1564 860.19897 C 505.25253 863.70833 517.59256 863.44707 528.72085 859.50951 C 567.51654 845.78233 586.86146 798.96647 569.5314 760.74584 C 564.60625 749.88366 553.86913 735.99975 550.39273 735.99975 C 549.81053 735.99975 549.33413 735.52001 549.33413 734.93334 C 549.33413 734.34667 548.61257 733.86694 547.73257 733.86694 C 546.85257 733.86694 546.13296 733.38719 546.13296 732.80053 C 546.13296 732.21386 545.41335 731.73412 544.53335 731.73412 C 543.65335 731.73412 542.93374 731.3295 542.93374 730.83569 C 542.93374 730.34189 541.01282 729.36297 538.66617 728.65991 C 536.2206 727.92719 534.40054 726.71651 534.40054 725.82397 C 534.40054 724.96752 533.74112 724.26733 532.9357 724.26733 C 532.13027 724.26733 529.22158 723.27231 526.47281 722.05639 C 521.99712 720.07659 513.29305 719.0161 504.92203 719.08178 z M 252.32632 727.42944 C 213.23365 727.67393 181.39221 763.64132 190.4396 802.02319 C 195.21237 822.27072 212.30728 840.60467 232.40835 847.03491 C 241.34299 849.89306 241.6509 849.79568 243.70328 843.46655 C 249.9406 824.2318 267.6331 807.93104 288.00015 802.65209 C 291.81349 801.6637 298.89258 800.83271 303.73257 800.80639 C 311.64654 800.76329 312.53335 800.55456 312.53335 798.73412 C 312.53335 797.6208 313.30116 793.00996 314.23843 788.48803 C 316.2955 778.56354 315.34413 772.81971 309.82828 761.84936 C 301.38905 745.06478 283.82485 732.11375 264.65445 728.53881 C 260.49242 727.76267 256.37039 727.40414 252.32632 727.42944 z M 392.16617 730.34936 C 384.51556 730.39489 376.88366 731.59441 369.6564 734.01537 C 336.99031 744.95772 315.33013 779.75755 319.99234 813.80834 C 321.54091 825.11843 326.58745 839.33632 331.3146 845.70678 C 331.46702 845.9122 334.86246 845.24236 338.86148 844.2185 C 349.71869 841.43875 366.19368 841.77672 377.08023 845.0017 C 390.30162 848.91836 399.21673 854.43271 409.59976 865.11694 C 414.58641 870.24826 419.05929 874.4959 419.53921 874.55639 C 420.01913 874.61689 424.81848 871.83093 430.20523 868.36498 C 441.32734 861.20877 447.08493 856.52523 450.89273 851.53295 L 453.52749 848.07787 L 449.23453 842.97241 C 428.73265 818.57994 424.64414 784.83791 438.61538 755.33373 L 441.83609 748.53491 L 438.78531 746.08178 C 425.91561 735.73402 408.9975 730.24919 392.16617 730.34936 z M 744.00015 733.47631 C 735.57201 733.56561 731.49378 734.18566 724.57046 736.42944 C 715.26889 739.44398 702.86112 747.00366 696.68179 753.42162 L 693.09781 757.14623 L 695.30679 763.906 C 703.146 787.88239 699.88753 814.7709 686.84585 833.72631 L 683.41617 838.71264 L 685.97476 843.60326 C 690.0027 851.3025 704.33548 864.99388 713.21499 869.6228 C 729.99503 878.37027 749.16277 879.99467 766.60953 874.15014 C 785.50814 867.81925 801.66894 852.54589 809.27554 833.82592 C 817.52719 813.51847 816.67865 792.38318 806.80679 772.26733 C 799.99488 758.38671 788.44194 746.71075 775.34976 740.47826 C 763.48817 734.83162 756.8107 733.34061 744.00015 733.47631 z M 843.65835 753.24194 C 836.23456 753.35239 828.245 754.37477 823.3732 756.07983 C 818.33596 757.84279 810.9911 761.13372 809.79703 762.16186 C 809.61195 762.32121 810.92662 765.35548 812.7189 768.906 C 818.69264 780.73991 820.78367 790.33172 820.77359 805.86694 C 820.76659 817.37877 820.34076 821.08767 818.27749 827.70678 C 814.16822 840.88956 808.1932 851.31095 799.22867 860.92748 L 794.63492 865.85522 L 801.45523 863.96459 C 827.05255 856.86667 854.84884 863.34646 873.50796 880.76147 C 876.78508 883.82006 879.99815 886.33968 880.64663 886.36108 C 881.29511 886.38248 884.99212 883.49828 888.86343 879.95092 C 932.93889 839.56377 913.35974 765.43839 855.61538 754.07787 C 852.36445 753.43829 848.11263 753.17567 843.65835 753.24194 z M 306.55874 806.46459 C 302.9656 806.41163 297.82578 806.9518 292.80093 808.01147 C 272.1719 812.36181 254.85798 828.23057 249.44546 847.74975 C 243.18152 870.33949 252.34172 894.59384 272.23453 908.09155 C 280.01803 913.37283 281.16668 913.19744 282.04117 906.60522 C 283.10252 898.6043 287.60275 886.85371 292.88492 878.28881 C 298.3293 869.46086 311.07843 856.90873 319.33023 852.2517 L 325.09195 848.99975 L 322.09585 843.43334 C 317.99142 835.80521 314.87252 826.07922 313.37906 816.2517 C 312.68942 811.71366 311.61746 807.64757 310.99624 807.21655 C 310.31284 806.74239 308.71463 806.49637 306.55874 806.46459 z M 565.43374 841.26342 L 559.60367 847.18725 C 549.21091 857.74738 536.82344 864.73665 523.07828 867.79467 L 515.39663 869.50366 L 523.0314 877.27319 C 527.23079 881.54607 530.73692 885.10703 530.82242 885.18725 C 530.90802 885.26745 532.51399 882.94009 534.39078 880.01537 C 540.26908 870.85483 553.36872 859.5033 564.20718 854.17944 L 573.82242 849.45678 L 569.6271 845.36108 L 565.43374 841.26342 z M 679.20328 844.85717 L 672.13492 850.76537 C 668.2475 854.01429 660.94592 858.70057 655.90835 861.17944 L 646.7482 865.6853 L 651.99624 871.50951 C 654.88225 874.71257 658.44806 879.3736 659.92203 881.86694 C 661.396 884.36026 662.97975 886.40014 663.4396 886.40014 C 663.89944 886.40014 667.03357 884.73858 670.40445 882.70873 C 677.57606 878.39022 686.64819 875.24816 697.00406 873.49584 L 704.40835 872.24389 L 700.20328 868.97241 C 693.75454 863.95435 687.32119 857.08545 683.06265 850.67162 L 679.20328 844.85717 z M 357.24038 848.56811 C 354.27936 848.54109 351.32395 848.72084 348.40249 849.12084 C 302.13527 855.45571 274.68687 904.96445 292.76968 949.46655 C 299.44869 965.90369 314.11217 980.85575 330.42398 987.86303 C 342.5254 993.06162 359.2088 994.47421 372.26578 991.406 C 381.41851 989.25523 392.99955 983.44992 399.4396 977.78295 L 404.63687 973.20873 L 401.35757 965.27123 C 399.55484 960.90532 397.48387 954.45334 396.75406 950.93334 C 394.92571 942.11493 395.15852 924.68977 397.22281 915.92553 C 399.42187 906.58897 405.26791 893.95882 410.7521 886.69506 L 415.05874 880.99194 L 411.26382 875.82006 C 399.01268 859.13066 377.96755 848.75723 357.24038 848.56811 z M 223.28921 851.58178 C 221.81679 851.57555 220.35209 851.76578 218.46304 852.11498 C 186.19988 858.07917 162.25427 885.56804 160.30484 918.88061 C 158.12173 956.18658 183.27973 988.74353 219.27945 995.19897 C 225.03737 996.23147 240.95487 995.59438 244.66617 994.18334 C 246.1556 993.61706 248.60896 990.05966 251.42398 984.38061 C 256.89779 973.33771 265.70666 963.41276 276.00015 956.69311 C 280.25446 953.91586 284.24822 951.47369 284.8732 951.26537 C 285.61985 951.01648 285.26478 948.19912 283.83804 943.05053 C 282.64381 938.741 281.34456 931.66538 280.95132 927.32592 L 280.23648 919.4353 L 275.85171 917.47045 C 269.0597 914.42783 258.40374 905.87294 253.9064 899.85131 C 245.28471 888.30745 241.06656 876.34595 241.06656 863.44116 L 241.06656 855.86498 L 232.70132 853.44701 C 228.21669 852.15115 225.74326 851.59217 223.28921 851.58178 z M 597.14078 853.33373 C 584.55118 853.33373 578.33637 854.78092 566.46109 860.48022 C 552.49083 867.18493 542.19714 877.50784 535.19742 891.83373 C 524.153 914.43764 524.10572 935.86272 535.05093 958.67553 C 543.56425 976.41962 561.47825 991.18611 579.90054 995.64623 C 588.32247 997.68522 604.95845 997.72048 612.84195 995.71655 C 625.09988 992.60063 634.41754 987.12113 644.3732 977.16967 C 659.1502 962.39891 665.90835 946.12992 665.90835 925.33373 C 665.90835 912.36998 663.92267 903.95213 657.97867 891.73412 C 654.39991 884.37792 651.8341 880.95472 644.38296 873.59155 C 630.05968 859.43733 615.82596 853.33373 597.14078 853.33373 z M 459.37124 853.43334 C 458.92176 853.4386 458.45409 853.61768 457.91031 853.96069 C 454.70109 855.98501 455.29859 857.19128 459.2814 856.72631 C 462.82476 856.31264 462.99669 856.13886 461.41421 854.55639 C 460.64752 853.78969 460.02817 853.42566 459.37124 853.43334 z M 470.93374 862.55053 C 460.00023 862.60063 456.99178 863.01137 450.30874 865.36303 C 439.4901 869.16995 431.7516 873.99875 423.43765 882.13256 C 407.6145 897.61288 399.6395 919.98581 402.13101 941.906 C 403.29024 952.10491 403.94537 954.79376 407.18765 962.66576 C 416.5021 985.28059 435.22846 1000.6483 459.80679 1005.8455 C 466.25667 1007.2094 482.45704 1006.314 489.59976 1004.199 C 501.05547 1000.8069 509.87245 995.3261 519.46695 985.63451 C 524.4536 980.59741 529.41825 974.74596 530.50015 972.63061 L 532.46695 968.78491 L 528.71109 960.92553 C 522.53295 947.99916 521.108 941.15064 521.19351 924.80053 C 521.25501 913.02814 521.7004 909.03755 523.63492 902.93334 C 527.41025 891.0206 527.41285 891.47689 523.55484 886.81225 C 515.49409 877.06631 504.8491 869.86682 491.73257 865.28686 C 484.76191 862.85288 482.0868 862.49942 470.93374 862.55053 z M 821.86734 867.83959 C 809.02828 867.92259 800.44727 870.03385 789.1857 875.88256 C 781.0185 880.12421 769.98747 889.14582 765.83023 894.98412 L 763.61148 898.10131 L 767.4982 903.18334 C 772.74075 910.03731 779.13132 923.69428 781.33804 932.75951 C 783.72402 942.56116 783.72688 960.35124 781.3439 970.17358 C 780.35303 974.25831 777.39767 982.07628 774.77554 987.54662 C 772.15341 993.01697 770.15705 997.9343 770.33804 998.47436 C 771.02138 1000.5133 782.67752 1009.2267 789.56265 1012.8455 C 804.50907 1020.7011 823.43772 1022.9029 839.88296 1018.697 C 853.23808 1015.2813 862.12068 1010.016 873.10757 998.99975 C 880.91544 991.17101 883.5887 987.61088 887.17788 980.26733 C 893.78904 966.74075 895.40043 959.64123 895.41226 943.99975 C 895.42126 933.02793 894.98471 929.25792 892.94742 922.71264 C 885.89951 900.06967 872.69556 884.28474 852.80093 874.72045 C 841.46036 869.2685 834.66124 867.75686 821.86734 867.83959 z M 706.99429 879.21264 C 702.7005 879.16904 698.47649 879.55756 694.43765 880.41772 C 686.28109 882.15482 673.43574 887.67056 668.95523 891.35912 L 666.44546 893.42553 L 668.62515 900.48608 C 672.23149 912.16207 673.39633 923.81885 672.00601 934.31616 C 669.66088 952.02264 662.65249 967.58335 651.55093 979.73022 L 646.01578 985.78686 L 647.96695 989.40991 C 653.04179 998.83331 665.93819 1010.8764 676.80093 1016.3376 C 691.21279 1023.5831 705.31802 1025.5082 720.70523 1022.3298 C 774.81793 1011.1525 795.26343 943.65705 757.42593 901.10717 C 745.52312 887.72195 725.6007 879.40156 706.99429 879.21264 z M 770.32828 880.06225 C 769.92772 880.09605 766.23962 880.99582 762.13296 882.06225 C 755.98402 883.65902 754.60479 884.41651 754.3146 886.35522 C 754.0017 888.44563 756.67367 892.80053 758.26968 892.80053 C 758.60312 892.80053 761.61743 889.92014 764.96695 886.40014 C 768.31646 882.88014 770.72883 880.02843 770.32828 880.06225 z M 288.6896 956.94116 L 285.41226 958.60326 C 274.16247 964.31325 262.66492 975.69369 257.07437 986.65209 C 249.44237 1001.6121 247.82241 1023.3891 253.14078 1039.5505 C 257.65937 1053.2816 266.98734 1065.6896 278.85171 1073.7517 C 290.78215 1081.8587 308.24151 1084.7793 322.52749 1081.0583 C 331.77186 1078.6505 339.57417 1074.4313 346.68765 1067.9939 L 353.06656 1062.2205 L 353.06656 1052.3474 C 353.06656 1039.4282 355.88066 1028.3298 362.41812 1015.4665 C 366.13018 1008.1627 367.39302 1004.5879 366.9396 1002.6658 C 366.32794 1000.0729 365.98645 999.98296 354.62124 999.36498 C 348.1926 999.01541 340.05335 997.8907 336.53335 996.86694 C 319.94414 992.04219 303.58179 979.80154 293.94546 965.00756 L 288.6896 956.94116 z M 536.71304 974.82201 L 533.19351 979.94506 C 523.82707 993.57737 509.82274 1004.2919 494.63882 1009.4451 C 492.9148 1010.0302 493.0505 1010.6867 496.13882 1016.7771 C 501.58766 1027.5226 503.55473 1035.1773 504.2189 1048.2205 L 504.82632 1060.1736 L 508.67984 1058.5154 C 510.79915 1057.6042 513.75542 1056.4125 515.25015 1055.8669 C 517.50685 1055.0431 518.25741 1053.6593 519.67398 1047.7048 C 522.32489 1036.5619 525.60508 1028.8371 531.29898 1020.324 C 537.06942 1011.6964 546.79946 1002.1079 554.16617 997.79076 C 556.78782 996.25437 558.93374 994.63963 558.93374 994.20287 C 558.93374 993.76612 557.743 992.86723 556.28921 992.20483 C 554.83542 991.54244 549.83673 987.36101 545.17984 982.91186 L 536.71304 974.82201 z M 410.59585 983.10522 L 404.4982 985.57983 C 385.08082 993.46063 370.26062 1009.2914 363.0314 1029.8767 C 360.29999 1037.6543 360.03726 1039.7064 360.03726 1053.3337 C 360.03726 1066.961 360.29999 1069.0131 363.0314 1076.7908 C 373.54874 1106.739 398.12533 1125.0408 428.11343 1125.2576 C 434.40793 1125.3036 441.25564 1124.6625 445.17984 1123.6619 C 457.57997 1120.5002 466.90862 1115.0347 476.84781 1105.1052 C 491.59759 1090.3697 498.08553 1074.6403 498.11734 1053.5447 C 498.13684 1040.5955 496.01977 1030.9777 490.88882 1020.7126 L 486.93374 1012.8005 L 473.06656 1012.7341 C 456.89342 1012.6581 452.09538 1011.6037 438.56656 1005.1462 C 430.57353 1001.3311 426.81421 998.67575 419.59585 991.74584 L 410.59585 983.10522 z M 640.86343 989.86694 L 636.44156 992.50366 C 631.03631 995.72696 630.65853 996.62309 634.05288 998.16967 C 638.96472 1000.4076 652.8124 1014.6632 657.71499 1022.529 C 662.39372 1030.0357 667.66402 1042.7607 667.71109 1046.6658 C 667.74819 1049.7419 668.61005 1048.85 671.90835 1042.3162 C 673.63476 1038.8962 676.73861 1033.881 678.80679 1031.1716 L 682.56851 1026.2439 L 676.61538 1023.5193 C 664.06348 1017.7728 650.11075 1005.487 643.54703 994.40014 L 640.86343 989.86694 z M 566.59195 998.16186 L 560.89663 1001.1872 C 557.764 1002.8507 551.07267 1008.3046 546.02749 1013.3064 C 531.2766 1027.9306 524.44546 1044.3129 524.44546 1065.0662 C 524.44546 1078.0003 526.43254 1086.3638 532.43179 1098.6658 C 535.97934 1105.9404 538.66762 1109.5453 546.02749 1116.9021 C 555.82817 1126.6987 565.16696 1132.2614 577.06656 1135.3865 C 584.11322 1137.2372 600.39376 1137.5101 608.21499 1135.9099 C 616.3996 1134.2354 632.17409 1126.2601 638.67984 1120.5076 C 658.10514 1103.332 667.12528 1075.7517 661.77945 1049.8708 C 657.695 1030.0968 644.19235 1010.9042 628.26968 1002.238 L 623.22867 999.49389 L 614.35562 1001.738 C 602.58594 1004.7143 584.40215 1004.192 573.69546 1000.5681 L 566.59195 998.16186 z M 759.64078 1008.7322 L 754.52945 1013.2302 C 747.24606 1019.6413 732.03639 1026.7802 721.10171 1028.9197 C 712.4381 1030.6149 698.12544 1030.5073 691.54117 1028.697 C 686.90453 1027.4221 674.88093 1047.1361 671.4689 1061.6072 C 669.43447 1070.2357 669.45826 1087.7198 671.51773 1096.533 C 677.67101 1122.8637 699.61114 1144.2341 726.93374 1150.5095 C 734.94958 1152.3505 752.39502 1151.7114 760.53335 1149.279 C 791.6257 1139.9865 812.80093 1111.4876 812.80093 1078.9333 C 812.80093 1062.19 807.93115 1047.9247 797.46499 1034.0017 C 789.65473 1023.6117 776.54819 1014.0613 765.18179 1010.4783 L 759.64078 1008.7322 z M 514.96695 1062.9451 C 513.65223 1063.0476 511.62949 1064.1903 508.34195 1065.9822 C 504.61119 1068.0156 503.8981 1069.0877 501.85562 1075.7341 C 498.06636 1088.0646 491.41154 1099.7468 482.92398 1108.9685 L 478.84195 1113.404 L 485.36343 1118.4236 C 503.9101 1132.695 515.16108 1155.6424 515.42203 1179.7341 C 515.48243 1185.3074 515.17912 1191.8822 514.7482 1194.3455 L 513.96499 1198.824 L 519.64859 1200.4216 C 526.14205 1202.246 530.03379 1202.9888 532.10367 1202.7986 C 532.89931 1202.7246 534.60447 1199.335 535.92398 1195.2009 C 543.13656 1172.6035 559.33487 1154.4679 579.69937 1146.1912 L 585.77945 1143.7205 L 577.6232 1141.906 C 564.21171 1138.9222 551.65895 1131.9172 541.48843 1121.7419 C 527.51936 1107.7666 520.51953 1093.0753 518.22671 1072.9119 C 517.38315 1065.4934 517.15815 1062.7742 514.96695 1062.9451 z M 354.23648 1071.6521 C 353.45827 1071.7226 350.84498 1073.3447 347.92788 1075.6091 C 336.29818 1084.637 324.01207 1089.0662 310.59585 1089.0662 L 303.09781 1089.0662 L 298.45913 1094.3689 C 269.80716 1127.1225 275.21765 1177.9825 309.99429 1202.7986 C 325.71296 1214.0152 344.87576 1218.2955 362.66617 1214.5642 C 369.36315 1213.1595 369.3932 1213.069 366.47867 1202.6658 C 365.49252 1199.1458 364.40112 1191.8478 364.05484 1186.447 C 362.59113 1163.6182 370.09041 1142.4955 385.19546 1126.904 L 390.39078 1121.5427 L 383.8146 1116.7712 C 372.19755 1108.3443 361.50225 1093.1596 356.78921 1078.4001 C 355.75886 1075.1735 354.70799 1072.1663 354.45328 1071.7185 C 354.42144 1071.6625 354.34765 1071.642 354.23648 1071.6521 z M 664.00601 1096.6462 C 663.65731 1096.6169 663.35003 1097.3161 662.87124 1098.4548 C 656.90184 1112.6518 641.17192 1128.8625 626.25601 1136.1892 L 616.70718 1140.8806 L 623.82046 1142.1794 C 634.7027 1144.169 649.32795 1151.8423 658.20718 1160.2185 C 662.28709 1164.0673 667.35983 1169.5782 669.47867 1172.4646 L 673.33023 1177.7126 L 676.78531 1172.5818 C 678.68567 1169.7599 683.4334 1164.4651 687.33413 1160.8162 C 691.23488 1157.1672 696.33699 1153.091 698.67203 1151.7576 C 701.00705 1150.4241 702.92052 1149.0939 702.92398 1148.8005 C 702.92698 1148.5072 700.73474 1146.8797 698.05288 1145.1853 C 685.08631 1136.9933 672.29365 1120.0769 667.07632 1104.2224 C 665.2825 1098.7713 664.58718 1096.6951 664.00601 1096.6462 z M 472.52359 1118.3337 C 471.66935 1118.3824 470.86923 1118.9062 469.41031 1119.9451 C 452.76991 1131.7939 425.42813 1135.141 404.38687 1127.904 L 395.4396 1124.8259 L 389.13101 1131.6872 C 381.54649 1139.9336 373.9735 1154.5753 371.72867 1165.3337 C 368.19007 1182.2925 370.38326 1198.9182 378.26578 1214.8865 C 382.24452 1222.9465 384.8748 1226.5969 391.35562 1233.0505 C 400.38444 1242.0416 412.32799 1249.0383 423.09976 1251.6462 C 431.52169 1253.6853 448.15962 1253.7213 456.04312 1251.7165 C 459.53972 1250.8276 465.98323 1248.3518 470.36343 1246.2126 C 481.02498 1241.0055 494.97448 1227.2637 500.53921 1216.4861 C 512.03028 1194.2306 512.02689 1168.3773 500.52749 1146.1814 C 496.30258 1138.0265 482.23857 1122.7923 475.96304 1119.572 C 474.28658 1118.7117 473.37782 1118.2851 472.52359 1118.3337 z M 607.94546 1146.865 C 597.99836 1146.974 587.98023 1149.4452 578.13296 1154.2771 C 571.0017 1157.7763 567.22892 1160.5696 560.45718 1167.363 C 550.84423 1177.0066 546.6294 1183.6996 542.2521 1196.2673 C 539.56851 1203.9721 539.27945 1206.199 539.27945 1219.2009 C 539.27945 1232.2028 539.56851 1234.4277 542.2521 1242.1326 C 546.6294 1254.7001 550.84423 1261.3933 560.45718 1271.0369 C 577.46381 1288.0977 598.7764 1294.7234 621.64468 1290.0564 C 642.65371 1285.7688 660.4708 1271.7533 670.35953 1251.7341 C 675.31376 1241.7045 677.58218 1231.4824 677.58218 1219.2009 C 677.58218 1190.4449 662.42326 1165.7459 637.33413 1153.6287 C 627.76988 1149.0094 617.89257 1146.756 607.94546 1146.865 z M 710.36148 1153.4685 C 707.75633 1153.6742 705.70185 1154.92 701.89273 1157.3884 C 693.65329 1162.7278 683.92438 1172.4092 679.9064 1179.2654 L 677.00015 1184.2224 L 679.77945 1192.4587 C 681.30855 1196.9886 683.07873 1204.8582 683.71109 1209.947 C 685.13537 1221.4086 683.73447 1234.2246 679.77945 1245.9412 L 677.00015 1254.1775 L 679.9064 1259.1345 C 688.74862 1274.2226 706.90872 1286.5123 726.47281 1290.6443 C 734.68637 1292.3789 749.56742 1291.1784 758.98648 1288.0212 C 778.08349 1281.62 792.05633 1269.0064 800.77359 1250.3005 C 809.99761 1230.5075 809.59204 1205.015 799.74429 1185.6072 C 794.2097 1174.6997 784.59937 1164.0031 774.57046 1157.5876 L 768.69546 1153.8298 L 760.61538 1155.8318 C 749.80597 1158.5082 731.71289 1158.4875 722.13296 1155.7888 C 716.12259 1154.0958 712.96662 1153.2628 710.36148 1153.4685 z M 512.69156 1205.5037 C 512.59371 1205.504 512.53061 1205.5142 512.50796 1205.5369 C 512.3268 1205.7183 511.13978 1208.5074 509.86929 1211.7341 C 506.34886 1220.6749 500.72489 1229.2748 493.38492 1236.947 C 488.96025 1241.5719 487.48609 1243.6905 488.97085 1243.2869 C 500.96304 1240.0267 519.39898 1239.9115 529.06656 1243.0369 C 536.48122 1245.4339 536.51852 1245.414 534.73062 1239.7341 C 533.85345 1236.9474 532.87363 1229.0358 532.55484 1222.154 L 531.97476 1209.6423 L 528.12124 1208.9997 C 526.0013 1208.6468 521.69594 1207.6497 518.55288 1206.783 C 515.80272 1206.0246 513.37647 1205.5013 512.69156 1205.5037 z M 371.67984 1219.2009 C 370.98669 1219.2009 366.87526 1220.9538 362.54312 1223.0974 C 351.65688 1228.484 338.10657 1242.127 332.51187 1253.3337 C 314.12411 1290.1658 327.43169 1333.6675 362.86343 1352.5525 C 376.45945 1359.799 394.55776 1361.8497 410.01578 1357.8962 C 418.12022 1355.8234 430.19066 1350.1445 434.98648 1346.1482 C 437.43611 1344.107 437.43829 1344.0906 435.78726 1336.0974 C 430.52986 1310.6448 437.62326 1283.9241 454.4982 1265.6169 C 456.89199 1263.0199 458.57507 1260.4488 458.23843 1259.904 C 457.88561 1259.3332 451.86112 1259.135 444.01382 1259.4372 C 428.0496 1260.0519 419.86003 1258.5395 407.8146 1252.7458 C 394.94898 1246.5577 381.68726 1234.5354 375.22281 1223.2009 C 373.96807 1221.0009 372.37298 1219.2009 371.67984 1219.2009 z M 510.26773 1246.9431 C 489.53273 1247.0669 468.18605 1257.2397 455.81851 1273.908 C 438.23062 1297.6116 435.61531 1327.2307 448.77945 1353.5994 C 454.77896 1365.6168 467.96204 1378.5849 480.00015 1384.3083 C 484.98681 1386.679 491.70709 1389.1345 494.93374 1389.7654 C 498.16041 1390.3963 501.76042 1391.1007 502.93374 1391.3318 C 507.29782 1392.1911 513.83741 1391.8839 521.96499 1390.4353 C 548.95732 1385.6243 571.51951 1363.4813 577.6896 1335.7478 C 580.11019 1324.8677 579.32197 1305.5885 576.08023 1296.4236 C 573.9608 1290.4317 573.18481 1289.5104 566.32046 1284.8201 C 557.38118 1278.7122 549.07876 1269.795 543.58218 1260.3962 C 539.15537 1252.8266 536.96616 1251.4696 524.4064 1248.5076 C 519.80436 1247.4223 515.05273 1246.9145 510.26773 1246.9431 z M 672.39859 1262.9412 C 671.88592 1262.9412 670.32982 1264.6185 668.9396 1266.6599 C 667.54938 1268.7013 662.91209 1273.6948 658.63492 1277.7576 C 640.34435 1295.1318 612.06696 1302.3001 588.96109 1295.4197 C 585.82322 1294.4853 583.01479 1293.9617 582.72085 1294.2556 C 582.42691 1294.5495 582.83529 1296.6217 583.6271 1298.8611 C 584.59847 1301.6083 585.06656 1308.311 585.06656 1319.4665 C 585.06656 1335.4999 584.95811 1336.3024 581.50601 1345.9978 L 577.94742 1355.9958 L 581.3146 1362.6287 C 590.22018 1380.174 607.60731 1394.055 626.73843 1398.8943 C 636.80624 1401.4409 654.47447 1400.4507 664.51187 1396.7771 C 686.93404 1388.5709 703.98787 1369.6016 710.04507 1346.1326 C 712.45285 1336.8034 712.40632 1319.0494 709.94937 1309.8669 C 706.54072 1297.1275 702.44385 1290.0883 695.05679 1284.283 C 691.39162 1281.4027 685.00322 1275.4211 680.86148 1270.99 C 676.71972 1266.5589 672.91127 1262.9373 672.39859 1262.9412 z M 573.74429 1363.2029 C 573.38407 1363.2029 571.72708 1365.1674 570.0607 1367.572 C 568.39433 1369.9766 564.05813 1374.657 560.42593 1377.9724 C 537.42188 1398.9703 505.6791 1403.8837 478.0021 1390.7302 C 470.1179 1386.9834 470.47902 1386.7501 466.92203 1397.8669 C 464.92521 1404.1076 464.53767 1407.6984 464.56265 1419.7341 C 464.58955 1432.6946 464.89005 1434.9855 467.56656 1442.6658 C 475.6026 1465.7254 494.14828 1483.556 516.26578 1489.4861 C 524.0683 1491.578 541.85899 1491.63 549.90835 1489.5837 C 562.09052 1486.487 571.47329 1480.9535 581.45913 1470.9744 C 596.14799 1456.2952 602.61866 1440.5499 602.65054 1419.4099 C 602.65954 1413.6591 601.92333 1405.6821 601.01382 1401.6833 C 599.43632 1394.7475 598.93242 1393.9764 590.06656 1384.9392 C 584.60112 1379.3681 579.45965 1372.9411 577.58609 1369.3357 C 575.83384 1365.9638 574.1045 1363.2043 573.74429 1363.2029 z "
       transform="translate(-36.949369,-36.808343)" />
  </g>
</svg>
